<svg xmlns="http://www.w3.org/2000/svg" viewBox="0 0 108 108" role="img" aria-label="BotBlade neon sentinel app icon">
  <defs>
    <linearGradient id="bgGlow" x1="0" y1="0" x2="1" y2="1">
      <stop offset="0%" stop-color="#0a0016"/>
      <stop offset="100%" stop-color="#000814"/>
    </linearGradient>
    <linearGradient id="cyanPink" x1="0" y1="0" x2="1" y2="1">
      <stop offset="0%" stop-color="#ff3ecb"/>
      <stop offset="100%" stop-color="#44d6ff"/>
    </linearGradient>
    <filter id="soft" x="-20%" y="-20%" width="140%" height="140%">
      <feGaussianBlur stdDeviation="1.2"/>
    </filter>
  </defs>
  <rect x="2" y="2" width="104" height="104" rx="18" fill="url(#bgGlow)"/>

  <path d="M54 14c9 0 16 6 16 15v8l-5 11-7 6h-8l-7-6-5-11v-8c0-9 7-15 16-15z" fill="#05070f" stroke="url(#cyanPink)" stroke-width="1.8"/>
  <path d="M42 31l-4 3v10l4 2M66 31l4 3v10l-4 2" fill="none" stroke="url(#cyanPink)" stroke-width="1.3" stroke-linecap="round"/>
  <path d="M42 39c3 2 6 2 8 0M66 39c-3 2-6 2-8 0" fill="none" stroke="#ff2ea8" stroke-width="2" stroke-linecap="round"/>
  <path d="M43 46c5 6 17 6 22 0" fill="none" stroke="#ff2ea8" stroke-width="2.4" stroke-linecap="round"/>

  <path d="M29 56l16 7h18l16-7 5 26H24z" fill="#050910" stroke="#4fd9ff" stroke-width="1.6"/>
  <path d="M33 64c7-7 35-7 42 0" fill="none" stroke="#ffba2e" stroke-width="4.6"/>
  <path d="M38 70c6-6 26-6 32 0" fill="none" stroke="#ffba2e" stroke-width="4.1"/>
  <path d="M43 75c4-4 18-4 22 0" fill="none" stroke="#ffba2e" stroke-width="3.6"/>
  <circle cx="54" cy="80" r="2.7" fill="#ffba2e"/>

  <path d="M34 84h40c2 0 3 1 3 3l-2 10H33l-2-10c0-2 1-3 3-3z" fill="#060b12" stroke="#4fd9ff" stroke-width="1.8"/>
  <path d="M49 89l-4 3 4 3M59 89l4 3-4 3M56 88l-4 8" fill="none" stroke="#62e1ff" stroke-width="2" stroke-linecap="round"/>

  <path d="M70 34l14-22 12-6-4 20-15 20" fill="none" stroke="#73e7ff" stroke-width="2.4" stroke-linecap="round" stroke-linejoin="round"/>
  <path d="M79 38l4-7 7-5" fill="none" stroke="#73e7ff" stroke-width="1.4" stroke-linecap="round"/>
  <circle cx="90" cy="24" r="2" fill="none" stroke="#73e7ff" stroke-width="1.2"/>

  <g filter="url(#soft)">
    <path d="M54 14c9 0 16 6 16 15" fill="none" stroke="#39d7ff" stroke-width="1.2"/>
    <path d="M38 29c0-9 7-15 16-15" fill="none" stroke="#ff45cb" stroke-width="1.2"/>
  </g>
</svg>
