<svg xmlns="http://www.w3.org/2000/svg" viewBox="0 0 108 108" role="img" aria-label="BotBlade app icon">
  <rect width="108" height="108" fill="#000000"/>

  <path fill="none" stroke="#75EFFF" stroke-width="2.8" stroke-linejoin="round" stroke-linecap="round" d="M65 35L86 11L102 4L97 29L74 52"/>
  <path fill="none" stroke="#75EFFF" stroke-width="1.2" stroke-linecap="round" stroke-linejoin="round" d="M78 39L78 31L86 23"/>
  <circle cx="86" cy="23" r="2" fill="none" stroke="#75EFFF" stroke-width="1.4"/>

  <path fill="#05070C" stroke="#FF4CCB" stroke-width="1.8" stroke-linejoin="round" d="M18 73L24 56L39 49L43 63L35 76L24 82Z"/>
  <path fill="#05070C" stroke="#75EFFF" stroke-width="1.8" stroke-linejoin="round" d="M90 73L84 56L69 49L65 63L73 76L84 82Z"/>

  <path fill="#030407" stroke="#FF4CCB" stroke-width="1.8" stroke-linejoin="round" d="M42 19C48 13 60 13 66 19L68 34L64 48L58 54L50 54L44 48L40 34Z"/>
  <path fill="none" stroke="#75EFFF" stroke-width="1.8" stroke-linejoin="round" d="M54 14C60 14 65 16 68 21L69 34L65 49"/>
  <path fill="none" stroke="#75EFFF" stroke-width="1.4" stroke-linejoin="round" d="M39 30L35 32L35 43L40 45M69 30L73 32L73 43L68 45"/>

  <path fill="#FF2F92" d="M43 36L50 38L48 40C45 40 42 39 40 37Z"/>
  <path fill="#FF2F92" d="M65 36L58 38L60 40C63 40 66 39 68 37Z"/>
  <path fill="none" stroke="#FF2F92" stroke-width="2.2" stroke-linecap="round" d="M43 44C47 50 61 50 65 44"/>

  <path fill="#070B12" stroke="#75EFFF" stroke-width="1.6" stroke-linejoin="round" d="M35 55L45 62L63 62L73 55L76 79L32 79Z"/>
  <path fill="none" stroke="#F8C44F" stroke-width="5" stroke-linecap="butt" d="M38 67C45 60 63 60 70 67"/>
  <path fill="none" stroke="#F8C44F" stroke-width="4" stroke-linecap="butt" d="M43 73C48 68 60 68 65 73"/>
  <circle cx="54" cy="78" r="3" fill="#F8C44F"/>

  <path fill="#06080D" stroke="#75EFFF" stroke-width="1.9" stroke-linejoin="round" d="M36 82L72 82Q75 82 75 85L73 96L35 96L33 85Q33 82 36 82Z"/>
  <path fill="none" stroke="#75EFFF" stroke-width="2" stroke-linejoin="miter" d="M49 88L45 91L49 94M59 88L63 91L59 94M56 87L52 95"/>
</svg>
